<svg viewBox="0 0 100 100">
	<style>
		text {
		fill: black;
		stroke-width: 0px;
		}
	</style>
	<defs>
		<g id="pod">
			<polygon points="5,-8.7 -5,-8.7 -10,0 -5,8.7 5,8.7 10,0" />
		</g>
	</defs>
	<g class="pod-wrap" stroke="rgba(0, 0, 0, 1)" fill="rgba(255, 255, 255, 0)">
		<g fill="rgba(255, 0,0, 0.5)">
			<use xlink:href="#pod" transform="translate(20,12) rotate(30) matrix(1,0,0,1,0,0)" />
			<text x="20" y="16.5" text-anchor="middle">
				0
			</text>
			<use xlink:href="#pod" transform="translate(37.3,12) rotate(30) matrix(1,0,0,1,0,0)" />
			<text x="37.3" y="16.5" text-anchor="middle">
				1
			</text>
			<use xlink:href="#pod" transform="translate(54.6,12) rotate(30) matrix(1,0,0,1,0,0)" />
			<text x="54.6" y="16.5" text-anchor="middle">
				2
			</text>
			<use xlink:href="#pod" transform="translate(71.9,12) rotate(30) matrix(1,0,0,1,0,0)" />
			<text x="71.9" y="16.5" text-anchor="middle">
				3
			</text>
			<use xlink:href="#pod" transform="translate(89.2,12) rotate(30) matrix(1,0,0,1,0,0)" />
			<text x="89.2" y="16.5" text-anchor="middle">
				4
			</text>
		</g>
		<use xlink:href="#pod" transform="translate(11.4,26.9) rotate(30) matrix(1,0,0,1,0,0)" />
		<text x="11.4" y="31.4" text-anchor="middle">
			5
		</text>
		<use xlink:href="#pod" transform="translate(28.7,26.9) rotate(30) matrix(1,0,0,1,0,0)" />
		<text x="28.7" y="31.4" text-anchor="middle">
			6
		</text>
		<use xlink:href="#pod" transform="translate(46,26.9) rotate(30) matrix(1,0,0,1,0,0)" />
		<text x="46" y="31.4" text-anchor="middle">
			7
		</text>
		<use xlink:href="#pod" transform="translate(63.3,26.9) rotate(30) matrix(1,0,0,1,0,0)" />
		<text x="63.3" y="31.4" text-anchor="middle">
			8
		</text>
		<use xlink:href="#pod" transform="translate(80.6,26.9) rotate(30) matrix(1,0,0,1,0,0)" />
		<text x="80.6" y="31.4" text-anchor="middle">
			9
		</text>
		<use xlink:href="#pod" transform="translate(20,41.8) rotate(30) matrix(1,0,0,1,0,0)" />
		<text x="20" y="46.3" text-anchor="middle">
			10
		</text>
		<use xlink:href="#pod" transform="translate(37.3,41.8) rotate(30) matrix(1,0,0,1,0,0)" />
		<text x="37.3" y="46.3" text-anchor="middle">
			11
		</text>
		<use xlink:href="#pod" transform="translate(54.6,41.8) rotate(30) matrix(1,0,0,1,0,0)" />
		<text x="54.6" y="46.3" text-anchor="middle">
			12
		</text>
		<use xlink:href="#pod" transform="translate(71.9,41.8) rotate(30) matrix(1,0,0,1,0,0)" />
		<text x="71.9" y="46.3" text-anchor="middle">
			13
		</text>
		<use xlink:href="#pod" transform="translate(89.2,41.8) rotate(30) matrix(1,0,0,1,0,0)" />
		<text x="89.2" y="46.3" text-anchor="middle">
			14
		</text>
		<use xlink:href="#pod" transform="translate(11.4,56.7) rotate(30) matrix(1,0,0,1,0,0)" />
		<text x="11.4" y="61.2" text-anchor="middle">
			15
		</text>
		<use xlink:href="#pod" transform="translate(28.7,56.7) rotate(30) matrix(1,0,0,1,0,0)" />
		<text x="28.7" y="61.2" text-anchor="middle">
			16
		</text>
		<use xlink:href="#pod" transform="translate(46,56.7) rotate(30) matrix(1,0,0,1,0,0)" />
		<text x="46" y="61.2" text-anchor="middle">
			17
		</text>
		<use xlink:href="#pod" transform="translate(63.3,56.7) rotate(30) matrix(1,0,0,1,0,0)" />
		<text x="63.3" y="61.2" text-anchor="middle">
			18
		</text>
		<use xlink:href="#pod" transform="translate(80.6,56.7) rotate(30) matrix(1,0,0,1,0,0)" />
		<text x="80.6" y="61.2" text-anchor="middle">
			19
		</text>
		<use xlink:href="#pod" transform="translate(20,71.6) rotate(30) matrix(1,0,0,1,0,0)" />
		<text x="20" y="76.1" text-anchor="middle">
			20
		</text>
		<use xlink:href="#pod" transform="translate(37.3,71.6) rotate(30) matrix(1,0,0,1,0,0)" />
		<text x="37.3" y="76.1" text-anchor="middle">
			21
		</text>
		<use xlink:href="#pod" transform="translate(54.6,71.6) rotate(30) matrix(1,0,0,1,0,0)" />
		<text x="54.6" y="76.1" text-anchor="middle">
			22
		</text>
		<use xlink:href="#pod" transform="translate(71.9,71.6) rotate(30) matrix(1,0,0,1,0,0)" />
		<text x="71.9" y="76.1" text-anchor="middle">
			23
		</text>
		<use xlink:href="#pod" transform="translate(89.2,71.6) rotate(30) matrix(1,0,0,1,0,0)" />
		<text x="89.2" y="76.1" text-anchor="middle">
			24
		</text>
		<use xlink:href="#pod" transform="translate(11.4,86.5) rotate(30) matrix(1,0,0,1,0,0)" />
		<text x="11.4" y="91" text-anchor="middle">
			25
		</text>
		<use xlink:href="#pod" transform="translate(28.7,86.5) rotate(30) matrix(1,0,0,1,0,0)" />
		<text x="28.7" y="91" text-anchor="middle">
			26
		</text>
		<use xlink:href="#pod" transform="translate(46,86.5) rotate(30) matrix(1,0,0,1,0,0)" />
		<text x="46" y="91" text-anchor="middle">
			27
		</text>
		<use xlink:href="#pod" transform="translate(63.3,86.5) rotate(30) matrix(1,0,0,1,0,0)" />
		<text x="63.3" y="91" text-anchor="middle">
			28
		</text>
		<use xlink:href="#pod" transform="translate(80.6,86.5) rotate(30) matrix(1,0,0,1,0,0)" />
		<text x="80.6" y="91" text-anchor="middle">
			29
		</text>
	</g>
</svg>
